# xmcd CD database file
#
# Track frame offsets:
#	150
#	24792
#	56882
#	78549
#	113137
#	142942
#	158992
#	187509
#	215619
#	249334
#
# Disc length: 3575 seconds
#
# Revision: 3
# Processed by: cddbd v1.5.2PL0 Copyright (c) Steve Scherf et al.
# Submitted via: CDex 1.70beta3
#
DISCID=7a0df50a
DTITLE=寺久保　エレナ - North Bird
DYEAR=2010
DGENRE=Jazz
TTITLE0=Yes Or No
TTITLE1=Black Narcissus
TTITLE2=Stablemates
TTITLE3=My Foolish Heart
TTITLE4=North Bird
TTITLE5=It's You Or No One
TTITLE6=Someday My Prince Will Come
TTITLE7=Tim Tam Time
TTITLE8=Like The Sunlight
TTITLE9=Take The "A" Train
EXTD=YEAR: 2010
EXTT0=
EXTT1=
EXTT2=
EXTT3=
EXTT4=
EXTT5=
EXTT6=
EXTT7=
EXTT8=
EXTT9=
PLAYORDER=
